<svg width="600" height="500" viewBox="0 0 600 500" fill="none" xmlns="http://www.w3.org/2000/svg">
<path fill-rule="evenodd" clip-rule="evenodd" d="M23 121.963V119.307H65.7083L114.512 221.742H89.2708C77.3617 196.165 64.9204 169.447 50.3229 138.141L50.1278 221.742H47.4063V193.052C47.4063 140.797 45.8125 121.963 23 121.963ZM47.4063 295.513V310.833C47.4063 363.094 45.8125 381.927 23 381.927V384.578H94.625V381.927C72.8141 381.927 51.9788 364.476 50.1826 295.513H47.4063ZM123.634 295.513C133.542 316.765 144.109 339.411 156.167 365.213H158.552C167.58 340.992 176.162 317.888 184.459 295.513H181.568L167.573 333.114L149.658 295.513H123.634ZM209.025 221.742H211.791C223.443 190.299 234.875 159.493 246.62 128.062V221.742H269.438V193.052C269.438 140.797 271.026 121.963 293.839 121.963V119.307H247.151L209.025 221.742ZM269.438 295.513H246.62V310.833C246.62 363.094 245.031 381.927 222.219 381.927V384.578H293.839V381.927C271.026 381.927 269.438 363.094 269.438 310.833V295.513Z" fill="#0D0C0C"/>
<path fill-rule="evenodd" clip-rule="evenodd" d="M387.451 121.963V119.307H459.076V121.963C436.258 121.963 434.67 140.797 434.67 193.052V221.742H411.857V193.052C411.857 140.797 410.264 121.963 387.451 121.963ZM411.857 295.513V310.833C411.857 363.094 410.264 381.927 387.451 381.927V384.578H577.118V340.807H574.467C574.467 379.005 493.561 381.927 468.357 381.927H434.67V295.513H411.857Z" fill="#0D0C0C"/>
<path fill-rule="evenodd" clip-rule="evenodd" d="M302.759 221.742L303.23 27.0049L301.23 27L300.759 221.742H302.759ZM302.58 295.513H300.58L300.152 472.167L302.152 472.172L302.58 295.513Z" fill="#0D0C0C"/>
<path d="M124.049 243.376V272.668H121.07V249.251L109.57 268.938H108.112L96.5911 249.376V272.668H93.6328V243.376H96.1745L108.904 265.105L121.487 243.376H124.049Z" fill="#0D0C0C"/>
<path d="M154.27 255.938C157.337 256.105 159.671 256.938 161.27 258.438C162.879 259.928 163.686 261.865 163.686 264.251C163.686 265.933 163.28 267.428 162.478 268.73C161.671 270.022 160.467 271.043 158.874 271.793C157.29 272.543 155.353 272.918 153.061 272.918C150.936 272.918 148.926 272.579 147.04 271.897C145.165 271.22 143.655 270.303 142.52 269.147L143.978 266.772C144.962 267.772 146.259 268.595 147.874 269.23C149.499 269.855 151.228 270.168 153.061 270.168C155.462 270.168 157.316 269.647 158.624 268.605C159.941 267.553 160.603 266.1 160.603 264.251C160.603 262.449 159.941 261.032 158.624 260.001C157.316 258.959 155.337 258.438 152.686 258.438H150.603V256.23L158.707 246.063H143.728V243.376H162.561V245.522L154.27 255.938Z" fill="#0D0C0C"/>
<path d="M183.848 243.376H195.764C198.858 243.376 201.587 244.001 203.952 245.251C206.327 246.49 208.165 248.22 209.473 250.438C210.79 252.647 211.452 255.178 211.452 258.022C211.452 260.871 210.79 263.407 209.473 265.626C208.165 267.834 206.327 269.563 203.952 270.813C201.587 272.053 198.858 272.668 195.764 272.668H183.848V243.376ZM195.598 269.98C198.165 269.98 200.41 269.475 202.327 268.459C204.254 267.449 205.749 266.043 206.806 264.251C207.874 262.449 208.41 260.371 208.41 258.022C208.41 255.688 207.874 253.621 206.806 251.813C205.749 250.011 204.254 248.6 202.327 247.584C200.41 246.574 198.165 246.063 195.598 246.063H186.952V269.98H195.598Z" fill="#0D0C0C"/>
<path d="M231.734 243.376H234.839V272.668H231.734V243.376Z" fill="#0D0C0C"/>
<path d="M276.065 264.855H259.753L256.253 272.668H253.023L266.419 243.376H269.461L282.857 272.668H279.586L276.065 264.855ZM274.94 262.334L267.919 246.605L260.898 262.334H274.94Z" fill="#0D0C0C"/>
<path d="M301.039 243.376H304.143V269.98H320.539V272.668H301.039V243.376Z" fill="#0D0C0C"/>
<path d="M363.499 243.376V272.668H360.936L342.124 248.897V272.668H339.02V243.376H341.561L360.436 267.147V243.376H363.499Z" fill="#0D0C0C"/>
<path d="M396.406 262.543V272.668H393.343V262.543L381.635 243.376H384.947L394.989 259.834L405.01 243.376H408.114L396.406 262.543Z" fill="#0D0C0C"/>
</svg>
